# xmcd
#
# Track frame offsets: 
#        150
#        14785
#        37145
#        73980
#        84115
#        98900
#        113135
#        127245
#        144055
#        162590
#        177712
#        197372
#
# Disc length: 2798 seconds
#
# Revision: 0
# Processed by: cddbd v1.5.2PL0 Copyright (c) Steve Scherf et al.
# Submitted via: ExactAudioCopy v1.0b3
#
DISCID=ae0aec0c
DTITLE=Dale Storr - Jammin' with the wind
DYEAR=2016
DGENRE=Blues
TTITLE0=Keep On Gwine
TTITLE1=Goodnight Irene
TTITLE2=Classified
TTITLE3=Booker's Bounce
TTITLE4=Besame Mucho
TTITLE5=Rockin' Pneumonia
TTITLE6=Pixie
TTITLE7=Pop's Dilemma
TTITLE8=Booker's Burden
TTITLE9=Hambone
TTITLE10=Junco Partner
TTITLE11=I'll Be Seeing You
EXTD=
EXTT0=
EXTT1=
EXTT2=
EXTT3=
EXTT4=
EXTT5=
EXTT6=
EXTT7=
EXTT8=
EXTT9=
EXTT10=
EXTT11=
PLAYORDER=
